<svg xmlns="http://www.w3.org/2000/svg" viewBox="0 0 540 460" width="100%" height="100%">
  <style>
    .radar-title { font-family: -apple-system, BlinkMacSystemFont, 'Segoe UI', Roboto, sans-serif; font-size: 16px; font-weight: 700; fill: #e6edf3; text-anchor: middle; letter-spacing: 1px; }
    .radar-label { font-family: 'JetBrains Mono', monospace, sans-serif; font-size: 12px; font-weight: 600; fill: #e6edf3; }
    .radar-value { font-family: 'JetBrains Mono', monospace, sans-serif; font-size: 11px; font-weight: 500; fill: #A855F7; }
    .grid-label { font-family: monospace; font-size: 9px; fill: #8b949e; text-anchor: middle; }
  </style>
  <g class="radar-container">
    <text x="270" y="32" class="radar-title">GITHUB LANGUAGE REALITY</text>
    <polygon points="270,213 293.4,226.5 293.4,253.5 270,267 246.6,253.5 246.6,226.5" fill="none" stroke="#30363d" stroke-opacity="0.6" stroke-width="1" />
    <text x="270" y="210" class="grid-label">20</text>
    <polygon points="270,186 316.8,213 316.8,267 270,294 223.2,267 223.2,213" fill="none" stroke="#30363d" stroke-opacity="0.6" stroke-width="1" />
    <text x="270" y="183" class="grid-label">40</text>
    <polygon points="270,159 340.1,199.5 340.1,280.5 270,321 199.9,280.5 199.9,199.5" fill="none" stroke="#30363d" stroke-opacity="0.6" stroke-width="1" />
    <text x="270" y="156" class="grid-label">60</text>
    <polygon points="270,132 363.5,186 363.5,294 270,348 176.5,294 176.5,186" fill="none" stroke="#30363d" stroke-opacity="0.6" stroke-width="1" />
    <text x="270" y="129" class="grid-label">80</text>
    <polygon points="270,105 386.9,172.5 386.9,307.5 270,375 153.1,307.5 153.1,172.5" fill="none" stroke="#30363d" stroke-opacity="0.6" stroke-width="1" />
    <text x="270" y="102" class="grid-label">100</text>
    <line x1="270" y1="240" x2="270" y2="105" stroke="#30363d" stroke-opacity="0.6" stroke-width="1" />
    <line x1="270" y1="240" x2="386.9" y2="172.5" stroke="#30363d" stroke-opacity="0.6" stroke-width="1" />
    <line x1="270" y1="240" x2="386.9" y2="307.5" stroke="#30363d" stroke-opacity="0.6" stroke-width="1" />
    <line x1="270" y1="240" x2="270" y2="375" stroke="#30363d" stroke-opacity="0.6" stroke-width="1" />
    <line x1="270" y1="240" x2="153.1" y2="307.5" stroke="#30363d" stroke-opacity="0.6" stroke-width="1" />
    <line x1="270" y1="240" x2="153.1" y2="172.5" stroke="#30363d" stroke-opacity="0.6" stroke-width="1" />
    <polygon points="270,105 385.9,173.1 338.3,279.4 270,313.7 212.6,273.1 264,236.6" fill="#A855F7" fill-opacity="0.28" stroke="#A855F7" stroke-width="2.5" stroke-linejoin="round" />
    <circle cx="270" cy="105" r="4.5" fill="#A855F7" />
    <circle cx="270" cy="105" r="2" fill="#ffffff" />
    <circle cx="385.9" cy="173.1" r="4.5" fill="#A855F7" />
    <circle cx="385.9" cy="173.1" r="2" fill="#ffffff" />
    <circle cx="338.3" cy="279.4" r="4.5" fill="#A855F7" />
    <circle cx="338.3" cy="279.4" r="2" fill="#ffffff" />
    <circle cx="270" cy="313.7" r="4.5" fill="#A855F7" />
    <circle cx="270" cy="313.7" r="2" fill="#ffffff" />
    <circle cx="212.6" cy="273.1" r="4.5" fill="#A855F7" />
    <circle cx="212.6" cy="273.1" r="2" fill="#ffffff" />
    <circle cx="264" cy="236.6" r="4.5" fill="#A855F7" />
    <circle cx="264" cy="236.6" r="2" fill="#ffffff" />
    <text x="270" y="77" text-anchor="middle" class="radar-label">Python</text>
    <text x="270" y="92" text-anchor="middle" class="radar-value">1.05 MB (38.0%)</text>
    <text x="407.7" y="156.5" text-anchor="start" class="radar-label">TypeScript</text>
    <text x="407.7" y="171.5" text-anchor="start" class="radar-value">1.03 MB (37.2%)</text>
    <text x="407.7" y="315.5" text-anchor="start" class="radar-label">HTML</text>
    <text x="407.7" y="330.5" text-anchor="start" class="radar-value">280.4 KB (9.9%)</text>
    <text x="270" y="395" text-anchor="middle" class="radar-label">JavaScript</text>
    <text x="270" y="410" text-anchor="middle" class="radar-value">237.3 KB (8.4%)</text>
    <text x="132.3" y="315.5" text-anchor="end" class="radar-label">CSS</text>
    <text x="132.3" y="330.5" text-anchor="end" class="radar-value">181.7 KB (6.4%)</text>
    <text x="132.3" y="156.5" text-anchor="end" class="radar-label">Mako</text>
    <text x="132.3" y="171.5" text-anchor="end" class="radar-value">635 B (0.0%)</text>
  </g>
</svg>